<svg width="1115" height="325" viewBox="0 0 1115 325" fill="none" xmlns="http://www.w3.org/2000/svg">
<path d="M59.2877 18.952V31.24H90.5837C96.0877 31.24 98.8397 29.192 98.8397 25.096V25C98.8397 20.968 96.0877 18.952 90.5837 18.952H59.2877ZM59.2877 48.52V73H32.0236V1.576H96.9197C116.952 1.576 126.968 7.688 126.968 19.912V20.968C126.968 23.4 126.488 25.608 125.528 27.592C124.568 29.576 123.288 31.176 121.688 32.392C120.152 33.608 118.616 34.568 117.08 35.272C115.608 35.976 114.104 36.52 112.568 36.904C117.112 37.928 120.696 39.912 123.32 42.856C125.944 45.736 127.256 49.416 127.256 53.896V64.456C127.256 68.168 127.704 70.856 128.6 72.52V73H100.76C100.184 72.36 99.8957 71.112 99.8957 69.256V60.904C99.8957 56.68 98.7757 53.576 96.5357 51.592C94.3597 49.544 90.6477 48.52 85.3997 48.52H59.2877ZM143.894 1.576H222.902V19.048H170.774V27.976H221.846V45.352H170.774V55.144H223.67V73H143.894V1.576ZM240.67 73V1.576H291.358C299.294 1.576 306.334 2.216 312.478 3.496C318.622 4.776 323.582 6.472 327.358 8.584C331.134 10.696 334.206 13.256 336.574 16.264C339.006 19.272 340.67 22.312 341.566 25.384C342.462 28.456 342.91 31.784 342.91 35.368V38.248C342.91 41.768 342.494 45.064 341.662 48.136C340.894 51.208 339.326 54.312 336.958 57.448C334.654 60.584 331.646 63.272 327.934 65.512C324.286 67.688 319.326 69.48 313.054 70.888C306.846 72.296 299.646 73 291.454 73H240.67ZM267.934 20.296V54.088H288.19C305.79 54.088 314.59 48.52 314.59 37.384V36.808C314.59 25.8 305.79 20.296 288.19 20.296H267.934ZM358.54 1.576H437.548V19.048H385.42V27.976H436.492V45.352H385.42V55.144H438.316V73H358.54V1.576ZM504.372 74.344H495.636C466.58 74.344 452.052 65.896 452.052 49V48.04H482.004C482.516 54.76 488.468 58.12 499.86 58.12H500.724C504.372 58.12 507.412 57.96 509.844 57.64C512.276 57.256 514.068 56.744 515.22 56.104C516.372 55.4 517.14 54.696 517.524 53.992C517.972 53.224 518.196 52.36 518.196 51.4V51.304C518.196 49.96 517.844 48.904 517.14 48.136C516.5 47.304 514.9 46.6 512.34 46.024C509.844 45.384 506.196 45 501.396 44.872L488.148 44.488C464.788 43.848 453.108 36.68 453.108 22.984V22.12C453.108 19.624 453.46 17.384 454.164 15.4C454.868 13.352 456.148 11.368 458.004 9.44799C459.86 7.528 462.292 5.928 465.3 4.648C468.308 3.368 472.244 2.344 477.108 1.576C482.036 0.743998 487.732 0.327997 494.196 0.327997H502.74C531.668 0.327997 546.132 7.848 546.132 22.888V23.656H516.468C515.892 18.6 510.132 16.072 499.188 16.072H498.228C493.748 16.072 490.292 16.36 487.86 16.936C485.428 17.448 483.924 18.056 483.348 18.76C482.772 19.4 482.484 20.264 482.484 21.352V21.448C482.484 22.536 482.804 23.432 483.444 24.136C484.148 24.84 485.684 25.48 488.052 26.056C490.42 26.568 493.748 26.856 498.036 26.92L510.9 27.208C524.404 27.592 534.068 29.48 539.892 32.872C545.716 36.2 548.628 41.48 548.628 48.712V50.056C548.628 52.68 548.308 55.08 547.668 57.256C547.028 59.368 545.748 61.544 543.828 63.784C541.908 65.96 539.348 67.816 536.148 69.352C533.012 70.824 528.724 72.04 523.284 73C517.908 73.896 511.604 74.344 504.372 74.344ZM591.073 1.576V73H563.905V1.576H591.073ZM657.4 74.344H655.192C647.704 74.344 641.048 73.576 635.224 72.04C629.4 70.44 624.76 68.456 621.304 66.088C617.848 63.656 615 60.808 612.76 57.544C610.52 54.216 608.984 51.016 608.152 47.944C607.384 44.808 607 41.608 607 38.344V35.656C607 32.264 607.384 29.064 608.152 26.056C608.92 22.984 610.424 19.848 612.664 16.648C614.968 13.384 617.912 10.6 621.496 8.296C625.144 5.928 630.04 4.008 636.184 2.536C642.392 0.999998 649.528 0.231998 657.592 0.231998H661.336C669.656 0.231998 676.952 0.903997 683.224 2.248C689.56 3.528 694.424 5.128 697.816 7.048C701.272 8.904 704.056 11.176 706.168 13.864C708.344 16.488 709.752 18.888 710.392 21.064C711.032 23.176 711.384 25.416 711.448 27.784V27.88H683.032C682.904 27.304 682.68 26.76 682.36 26.248C682.104 25.672 681.464 24.904 680.44 23.944C679.416 22.984 678.136 22.184 676.6 21.544C675.128 20.84 672.92 20.232 669.976 19.72C667.032 19.144 663.672 18.856 659.896 18.856C643.448 18.856 635.224 24.744 635.224 36.52V37.576C635.224 42.632 637.24 46.92 641.272 50.44C645.304 53.896 651.448 55.624 659.704 55.624C663.224 55.624 666.424 55.4 669.304 54.952C672.184 54.44 674.488 53.832 676.216 53.128C678.008 52.424 679.512 51.656 680.728 50.824C682.008 49.992 682.872 49.224 683.32 48.52C683.832 47.816 684.088 47.208 684.088 46.696H659.032V32.776H711.928V73H694.744C693.976 69.224 692.856 65.928 691.384 63.112C684.6 70.6 673.272 74.344 657.4 74.344ZM729.801 1.576H760.329L801.801 42.184V1.576H828.873V73H801.609L756.873 29.704V73H729.801V1.576ZM847.202 1.576H926.21V19.048H874.082V27.976H925.154V45.352H874.082V55.144H926.978V73H847.202V1.576ZM943.979 73V1.576H994.667C1002.6 1.576 1009.64 2.216 1015.79 3.496C1021.93 4.776 1026.89 6.472 1030.67 8.584C1034.44 10.696 1037.51 13.256 1039.88 16.264C1042.31 19.272 1043.98 22.312 1044.87 25.384C1045.77 28.456 1046.22 31.784 1046.22 35.368V38.248C1046.22 41.768 1045.8 45.064 1044.97 48.136C1044.2 51.208 1042.63 54.312 1040.27 57.448C1037.96 60.584 1034.95 63.272 1031.24 65.512C1027.59 67.688 1022.63 69.48 1016.36 70.888C1010.15 72.296 1002.95 73 994.763 73H943.979ZM971.243 20.296V54.088H991.499C1009.1 54.088 1017.9 48.52 1017.9 37.384V36.808C1017.9 25.8 1009.1 20.296 991.499 20.296H971.243ZM1083.63 54.28V73H1056.56V54.28H1083.63ZM28.022 143.952V156.24H59.318C64.822 156.24 67.574 154.192 67.574 150.096V150C67.574 145.968 64.822 143.952 59.318 143.952H28.022ZM28.022 173.52V198H0.758024V126.576H65.654C85.686 126.576 95.702 132.688 95.702 144.912V145.968C95.702 148.4 95.222 150.608 94.262 152.592C93.302 154.576 92.022 156.176 90.422 157.392C88.886 158.608 87.35 159.568 85.814 160.272C84.342 160.976 82.838 161.52 81.302 161.904C85.846 162.928 89.43 164.912 92.054 167.856C94.678 170.736 95.99 174.416 95.99 178.896V189.456C95.99 193.168 96.438 195.856 97.334 197.52V198H69.494C68.918 197.36 68.63 196.112 68.63 194.256V185.904C68.63 181.68 67.51 178.576 65.27 176.592C63.094 174.544 59.382 173.52 54.134 173.52H28.022ZM112.628 126.576H191.636V144.048H139.508V152.976H190.58V170.352H139.508V180.144H192.404V198H112.628V126.576ZM209.404 126.576H236.668V177.552H286.204V198H209.404V126.576ZM362.689 168.624L350.689 144.048L338.977 168.624H362.689ZM376.993 198L371.425 186.48H330.625L325.153 198H297.505L332.833 126.576H369.505L406.849 198H376.993ZM410.626 160.656V126.576H437.986V158.544C437.986 160.976 438.306 163.248 438.946 165.36C439.586 167.408 440.642 169.424 442.114 171.408C443.586 173.328 445.826 174.864 448.834 176.016C451.906 177.168 455.586 177.744 459.874 177.744C464.098 177.744 467.714 177.168 470.722 176.016C473.73 174.864 475.97 173.328 477.442 171.408C478.978 169.424 480.066 167.408 480.706 165.36C481.346 163.248 481.666 160.976 481.666 158.544V126.576H508.93V160.656C508.93 163.856 508.61 166.992 507.97 170.064C507.33 173.136 505.986 176.496 503.938 180.144C501.89 183.792 499.234 186.96 495.97 189.648C492.706 192.336 488.13 194.608 482.242 196.464C476.354 198.256 469.57 199.152 461.89 199.152H458.05C450.114 199.152 443.17 198.256 437.218 196.464C431.266 194.608 426.626 192.336 423.298 189.648C420.034 186.96 417.378 183.792 415.33 180.144C413.346 176.432 412.066 173.072 411.49 170.064C410.914 167.056 410.626 163.92 410.626 160.656ZM526.452 126.576H556.98L598.452 167.184V126.576H625.524V198H598.26L553.524 154.704V198H526.452V126.576ZM695.693 199.344H691.949C683.565 199.344 676.205 198.512 669.869 196.848C663.597 195.184 658.701 193.136 655.181 190.704C651.661 188.208 648.813 185.264 646.637 181.872C644.461 178.48 643.053 175.344 642.413 172.464C641.773 169.584 641.453 166.576 641.453 163.44V160.656C641.453 157.456 641.741 154.448 642.317 151.632C642.957 148.816 644.333 145.744 646.445 142.416C648.557 139.024 651.341 136.144 654.797 133.776C658.317 131.344 663.245 129.328 669.581 127.728C675.981 126.064 683.437 125.232 691.949 125.232H695.693C701.645 125.232 707.085 125.616 712.013 126.384C717.005 127.152 721.165 128.144 724.493 129.36C727.885 130.576 730.861 132.048 733.421 133.776C736.045 135.44 738.093 137.136 739.565 138.864C741.037 140.592 742.221 142.448 743.117 144.432C744.077 146.352 744.685 148.08 744.941 149.616C745.261 151.152 745.421 152.656 745.421 154.128V155.376H717.101C714.925 148.08 707.085 144.432 693.581 144.432C677.645 144.432 669.677 150 669.677 161.136V162.288C669.677 164.4 670.029 166.416 670.733 168.336C671.501 170.256 672.717 172.144 674.381 174C676.109 175.856 678.605 177.328 681.869 178.416C685.197 179.504 689.133 180.048 693.677 180.048C697.645 180.048 701.133 179.696 704.141 178.992C707.149 178.224 709.421 177.392 710.957 176.496C712.493 175.6 713.773 174.48 714.797 173.136C715.821 171.792 716.429 170.832 716.621 170.256C716.813 169.68 717.005 169.04 717.197 168.336H745.421V169.872C745.421 172.048 745.101 174.288 744.461 176.592C743.821 178.832 742.413 181.392 740.237 184.272C738.061 187.088 735.245 189.584 731.789 191.76C728.397 193.872 723.565 195.664 717.293 197.136C711.085 198.608 703.885 199.344 695.693 199.344ZM761.067 198V126.576H788.331V151.824H832.971V126.576H860.139V198H832.971V170.832H788.331V198H761.067ZM878.468 126.576H957.476V144.048H905.348V152.976H956.42V170.352H905.348V180.144H958.244V198H878.468V126.576ZM975.244 198V126.576H1025.93C1033.87 126.576 1040.91 127.216 1047.05 128.496C1053.2 129.776 1058.16 131.472 1061.93 133.584C1065.71 135.696 1068.78 138.256 1071.15 141.264C1073.58 144.272 1075.24 147.312 1076.14 150.384C1077.04 153.456 1077.48 156.784 1077.48 160.368V163.248C1077.48 166.768 1077.07 170.064 1076.24 173.136C1075.47 176.208 1073.9 179.312 1071.53 182.448C1069.23 185.584 1066.22 188.272 1062.51 190.512C1058.86 192.688 1053.9 194.48 1047.63 195.888C1041.42 197.296 1034.22 198 1026.03 198H975.244ZM1002.51 145.296V179.088H1022.76C1040.36 179.088 1049.16 173.52 1049.16 162.384V161.808C1049.16 150.8 1040.36 145.296 1022.76 145.296H1002.51ZM1114.9 179.28V198H1087.83V179.28H1114.9ZM142.845 268.952V281.24H174.141C179.645 281.24 182.397 279.192 182.397 275.096V275C182.397 270.968 179.645 268.952 174.141 268.952H142.845ZM142.845 298.52V323H115.581V251.576H180.477C200.509 251.576 210.525 257.688 210.525 269.912V270.968C210.525 273.4 210.045 275.608 209.085 277.592C208.125 279.576 206.845 281.176 205.245 282.392C203.709 283.608 202.173 284.568 200.637 285.272C199.165 285.976 197.661 286.52 196.125 286.904C200.669 287.928 204.253 289.912 206.877 292.856C209.501 295.736 210.813 299.416 210.813 303.896V314.456C210.813 318.168 211.261 320.856 212.157 322.52V323H184.317C183.741 322.36 183.453 321.112 183.453 319.256V310.904C183.453 306.68 182.333 303.576 180.093 301.592C177.917 299.544 174.205 298.52 168.957 298.52H142.845ZM227.451 251.576H306.459V269.048H254.331V277.976H305.403V295.352H254.331V305.144H307.227V323H227.451V251.576ZM324.227 251.576H351.491V302.552H401.027V323H324.227V251.576ZM464.638 250.232H468.958C475.294 250.232 481.054 250.68 486.238 251.576C491.486 252.408 495.87 253.528 499.39 254.936C502.974 256.28 506.078 257.976 508.702 260.024C511.39 262.008 513.502 264.024 515.038 266.072C516.574 268.12 517.79 270.36 518.686 272.792C519.646 275.224 520.254 277.432 520.51 279.416C520.83 281.4 520.99 283.48 520.99 285.656V288.536C520.99 290.712 520.83 292.792 520.51 294.776C520.254 296.76 519.646 299 518.686 301.496C517.79 303.928 516.574 306.2 515.038 308.312C513.566 310.36 511.486 312.408 508.798 314.456C506.11 316.504 503.006 318.232 499.486 319.64C495.966 321.048 491.582 322.168 486.334 323C481.15 323.896 475.358 324.344 468.958 324.344H464.638C458.238 324.344 452.414 323.896 447.166 323C441.982 322.168 437.598 321.048 434.014 319.64C430.494 318.232 427.39 316.504 424.702 314.456C422.014 312.408 419.902 310.36 418.366 308.312C416.894 306.2 415.678 303.928 414.718 301.496C413.822 299 413.214 296.76 412.894 294.776C412.638 292.792 412.51 290.712 412.51 288.536V285.656C412.51 283.48 412.638 281.4 412.894 279.416C413.214 277.432 413.822 275.224 414.718 272.792C415.678 270.36 416.894 268.12 418.366 266.072C419.902 264.024 422.014 262.008 424.702 260.024C427.39 257.976 430.494 256.28 434.014 254.936C437.598 253.528 441.982 252.408 447.166 251.576C452.414 250.68 458.238 250.232 464.638 250.232ZM492.766 287.672V286.328C492.766 284.216 492.382 282.264 491.614 280.472C490.846 278.616 489.534 276.824 487.678 275.096C485.886 273.368 483.198 271.992 479.614 270.968C476.03 269.944 471.742 269.432 466.75 269.432C461.63 269.432 457.278 269.944 453.694 270.968C450.11 271.992 447.422 273.368 445.63 275.096C443.838 276.824 442.558 278.616 441.79 280.472C441.086 282.264 440.734 284.216 440.734 286.328V287.48C440.734 289.592 441.118 291.608 441.886 293.528C442.654 295.384 443.934 297.24 445.726 299.096C447.518 300.888 450.206 302.328 453.79 303.416C457.438 304.504 461.758 305.048 466.75 305.048C471.742 305.048 476.03 304.536 479.614 303.512C483.262 302.424 485.982 300.984 487.774 299.192C489.566 297.4 490.846 295.576 491.614 293.72C492.382 291.8 492.766 289.784 492.766 287.672ZM589.382 293.624L577.382 269.048L565.67 293.624H589.382ZM603.686 323L598.118 311.48H557.318L551.846 323H524.198L559.526 251.576H596.198L633.542 323H603.686ZM645.775 323V251.576H696.463C704.399 251.576 711.439 252.216 717.583 253.496C723.727 254.776 728.687 256.472 732.463 258.584C736.239 260.696 739.311 263.256 741.679 266.264C744.111 269.272 745.775 272.312 746.671 275.384C747.567 278.456 748.015 281.784 748.015 285.368V288.248C748.015 291.768 747.599 295.064 746.767 298.136C745.999 301.208 744.431 304.312 742.063 307.448C739.759 310.584 736.751 313.272 733.039 315.512C729.391 317.688 724.431 319.48 718.159 320.888C711.951 322.296 704.751 323 696.559 323H645.775ZM673.039 270.296V304.088H693.295C710.895 304.088 719.695 298.52 719.695 287.384V286.808C719.695 275.8 710.895 270.296 693.295 270.296H673.039ZM763.645 251.576H842.653V269.048H790.525V277.976H841.597V295.352H790.525V305.144H843.421V323H763.645V251.576ZM860.421 323V251.576H911.109C919.045 251.576 926.085 252.216 932.229 253.496C938.373 254.776 943.333 256.472 947.109 258.584C950.885 260.696 953.957 263.256 956.325 266.264C958.757 269.272 960.421 272.312 961.317 275.384C962.213 278.456 962.661 281.784 962.661 285.368V288.248C962.661 291.768 962.245 295.064 961.413 298.136C960.645 301.208 959.077 304.312 956.709 307.448C954.405 310.584 951.397 313.272 947.685 315.512C944.037 317.688 939.077 319.48 932.805 320.888C926.597 322.296 919.397 323 911.205 323H860.421ZM887.685 270.296V304.088H907.941C925.541 304.088 934.341 298.52 934.341 287.384V286.808C934.341 275.8 925.541 270.296 907.941 270.296H887.685ZM1000.07 304.28V323H973.003V304.28H1000.07Z" fill="white"/>
</svg>
