<svg width="1337" height="75" viewBox="0 0 1337 75" fill="none" xmlns="http://www.w3.org/2000/svg">
<path d="M54.4542 74.344H50.7102C42.3262 74.344 34.9662 73.512 28.6302 71.848C22.3582 70.184 17.4622 68.136 13.9422 65.704C10.4222 63.208 7.57423 60.264 5.39823 56.872C3.22223 53.48 1.81423 50.344 1.17423 47.464C0.534226 44.584 0.214226 41.576 0.214226 38.44V35.656C0.214226 32.456 0.502226 29.448 1.07823 26.632C1.71823 23.816 3.09423 20.744 5.20623 17.416C7.31823 14.024 10.1022 11.144 13.5582 8.776C17.0782 6.344 22.0062 4.328 28.3422 2.72799C34.7422 1.064 42.1982 0.231998 50.7102 0.231998H54.4542C60.4062 0.231998 65.8462 0.615997 70.7742 1.384C75.7662 2.152 79.9262 3.144 83.2542 4.36C86.6462 5.576 89.6222 7.048 92.1822 8.776C94.8062 10.44 96.8542 12.136 98.3262 13.864C99.7982 15.592 100.982 17.448 101.878 19.432C102.838 21.352 103.446 23.08 103.702 24.616C104.022 26.152 104.182 27.656 104.182 29.128V30.376H75.8622C73.6862 23.08 65.8462 19.432 52.3422 19.432C36.4062 19.432 28.4382 25 28.4382 36.136V37.288C28.4382 39.4 28.7902 41.416 29.4942 43.336C30.2622 45.256 31.4782 47.144 33.1422 49C34.8702 50.856 37.3662 52.328 40.6302 53.416C43.9582 54.504 47.8942 55.048 52.4382 55.048C56.4062 55.048 59.8942 54.696 62.9022 53.992C65.9102 53.224 68.1822 52.392 69.7182 51.496C71.2542 50.6 72.5342 49.48 73.5582 48.136C74.5822 46.792 75.1902 45.832 75.3822 45.256C75.5742 44.68 75.7662 44.04 75.9582 43.336H104.182V44.872C104.182 47.048 103.862 49.288 103.222 51.592C102.582 53.832 101.174 56.392 98.9982 59.272C96.8222 62.088 94.0062 64.584 90.5502 66.76C87.1582 68.872 82.3262 70.664 76.0542 72.136C69.8462 73.608 62.6462 74.344 54.4542 74.344ZM130.483 73V46.12L91.4112 1.576H124.051L144.883 26.248L166.099 1.576H195.955L157.747 46.312V73H130.483ZM193.827 73V1.576H261.027C270.627 1.576 277.411 3.112 281.379 6.184C285.411 9.192 287.427 13.064 287.427 17.8V18.856C287.427 22.824 286.147 25.992 283.587 28.36C281.027 30.664 278.211 32.168 275.139 32.872C277.059 33.32 278.819 33.928 280.419 34.696C282.083 35.464 283.811 36.52 285.603 37.864C287.459 39.208 288.899 41.032 289.923 43.336C291.011 45.64 291.555 48.264 291.555 51.208V52.36C291.555 66.12 281.507 73 261.411 73H193.827ZM252.771 17.8H221.091V27.88H252.771C257.635 27.88 260.067 26.216 260.067 22.888V22.696C260.067 19.432 257.635 17.8 252.771 17.8ZM254.499 43.912H221.091V56.2H254.499C260.131 56.2 262.947 54.152 262.947 50.056V49.768C262.947 45.864 260.131 43.912 254.499 43.912ZM292.527 1.576H371.535V19.048H319.407V27.976H370.479V45.352H319.407V55.144H372.303V73H292.527V1.576ZM402.647 18.952V31.24H433.943C439.447 31.24 442.199 29.192 442.199 25.096V25C442.199 20.968 439.447 18.952 433.943 18.952H402.647ZM402.647 48.52V73H375.383V1.576H440.279C460.311 1.576 470.327 7.688 470.327 19.912V20.968C470.327 23.4 469.847 25.608 468.887 27.592C467.927 29.576 466.647 31.176 465.047 32.392C463.511 33.608 461.975 34.568 460.439 35.272C458.967 35.976 457.463 36.52 455.927 36.904C460.471 37.928 464.055 39.912 466.679 42.856C469.303 45.736 470.615 49.416 470.615 53.896V64.456C470.615 68.168 471.063 70.856 471.959 72.52V73H444.119C443.543 72.36 443.255 71.112 443.255 69.256V60.904C443.255 56.68 442.135 53.576 439.895 51.592C437.719 49.544 434.007 48.52 428.759 48.52H402.647ZM473.333 73V1.576H510.773L532.661 41.704L554.933 1.576H590.837V73H563.861V28.456L538.805 73H524.885L499.925 28.456V73H473.333ZM654.323 43.624L642.323 19.048L630.611 43.624H654.323ZM668.627 73L663.059 61.48H622.259L616.787 73H589.139L624.467 1.576H661.139L698.483 73H668.627ZM696.796 1.576H727.324L768.796 42.184V1.576H795.868V73H768.604L723.868 29.704V73H696.796V1.576ZM827.445 1.576V73H800.277V1.576H827.445ZM890.892 43.624L878.892 19.048L867.18 43.624H890.892ZM905.196 73L899.628 61.48H858.828L853.356 73H825.708L861.036 1.576H897.708L935.052 73H905.196ZM1047.29 73H955.512V64.648C955.512 62.856 955.544 61.352 955.608 60.136C955.736 58.856 956.056 57.192 956.568 55.144C957.144 53.032 957.912 51.208 958.872 49.672C959.832 48.072 961.24 46.28 963.096 44.296C965.016 42.312 967.288 40.552 969.912 39.016C972.6 37.48 975.96 35.944 979.992 34.408C984.088 32.872 988.696 31.56 993.816 30.472C997.528 29.576 1002.14 28.648 1007.64 27.688C1011.86 26.856 1014.58 26.056 1015.8 25.288C1017.02 24.52 1017.62 23.528 1017.62 22.312C1017.62 21.352 1017.27 20.584 1016.57 20.008C1015.93 19.368 1014.39 18.824 1011.96 18.376C1009.59 17.864 1006.26 17.608 1001.98 17.608C998.84 17.608 996.12 17.864 993.816 18.376C991.576 18.888 989.88 19.464 988.728 20.104C987.64 20.68 986.744 21.48 986.04 22.504C985.4 23.528 984.984 24.328 984.792 24.904C984.664 25.416 984.568 26.088 984.504 26.92H956.664V26.248C956.664 8.904 970.808 0.231998 999.096 0.231998H1003.22C1010.2 0.231998 1016.28 0.647997 1021.46 1.47999C1026.71 2.248 1030.87 3.304 1033.94 4.648C1037.08 5.928 1039.58 7.56 1041.43 9.544C1043.29 11.528 1044.54 13.544 1045.18 15.592C1045.88 17.576 1046.23 19.848 1046.23 22.408V22.792C1046.23 26.888 1045.3 30.248 1043.45 32.872C1041.59 35.432 1038.3 37.64 1033.56 39.496C1028.89 41.352 1022.26 42.984 1013.69 44.392L998.328 46.984C985.592 49.16 979.224 51.848 979.224 55.048H1022.04V46.6H1047.29V73ZM1151.54 35.752V38.632C1151.54 41.64 1151.22 44.552 1150.58 47.368C1150 50.184 1148.62 53.32 1146.45 56.776C1144.34 60.168 1141.55 63.112 1138.1 65.608C1134.64 68.04 1129.74 70.12 1123.41 71.848C1117.14 73.512 1109.81 74.344 1101.42 74.344H1097.1C1088.72 74.344 1081.36 73.512 1075.02 71.848C1068.69 70.12 1063.79 68.04 1060.34 65.608C1056.88 63.112 1054.06 60.168 1051.89 56.776C1049.78 53.32 1048.4 50.184 1047.76 47.368C1047.18 44.552 1046.9 41.64 1046.9 38.632V35.752C1046.9 33.64 1047.02 31.592 1047.28 29.608C1047.6 27.624 1048.21 25.416 1049.1 22.984C1050.06 20.552 1051.28 18.312 1052.75 16.264C1054.22 14.152 1056.24 12.104 1058.8 10.12C1061.42 8.072 1064.43 6.344 1067.82 4.936C1071.28 3.528 1075.5 2.408 1080.5 1.576C1085.49 0.679998 1091.02 0.231998 1097.1 0.231998H1101.42C1107.5 0.231998 1113.04 0.679998 1118.03 1.576C1123.02 2.408 1127.22 3.528 1130.61 4.936C1134 6.344 1136.98 8.072 1139.54 10.12C1142.16 12.104 1144.21 14.152 1145.68 16.264C1147.15 18.312 1148.34 20.552 1149.23 22.984C1150.19 25.416 1150.8 27.624 1151.06 29.608C1151.38 31.592 1151.54 33.64 1151.54 35.752ZM1123.22 37.576V36.328C1123.22 34.28 1122.83 32.36 1122.06 30.568C1121.36 28.712 1120.14 26.92 1118.42 25.192C1116.75 23.4 1114.26 21.992 1110.93 20.968C1107.66 19.944 1103.76 19.432 1099.22 19.432C1094.54 19.432 1090.54 19.944 1087.22 20.968C1083.89 21.992 1081.39 23.4 1079.73 25.192C1078.06 26.92 1076.88 28.712 1076.18 30.568C1075.47 32.36 1075.12 34.28 1075.12 36.328V37.48C1075.12 39.528 1075.47 41.512 1076.18 43.432C1076.94 45.288 1078.16 47.144 1079.82 49C1081.55 50.792 1084.08 52.232 1087.41 53.32C1090.74 54.408 1094.67 54.952 1099.22 54.952C1103.76 54.952 1107.66 54.408 1110.93 53.32C1114.26 52.232 1116.75 50.792 1118.42 49C1120.14 47.208 1121.36 45.384 1122.06 43.528C1122.83 41.608 1123.22 39.624 1123.22 37.576ZM1241.22 73H1149.44V64.648C1149.44 62.856 1149.48 61.352 1149.54 60.136C1149.67 58.856 1149.99 57.192 1150.5 55.144C1151.08 53.032 1151.84 51.208 1152.8 49.672C1153.76 48.072 1155.17 46.28 1157.03 44.296C1158.95 42.312 1161.22 40.552 1163.84 39.016C1166.53 37.48 1169.89 35.944 1173.92 34.408C1178.02 32.872 1182.63 31.56 1187.75 30.472C1191.46 29.576 1196.07 28.648 1201.57 27.688C1205.8 26.856 1208.52 26.056 1209.73 25.288C1210.95 24.52 1211.56 23.528 1211.56 22.312C1211.56 21.352 1211.2 20.584 1210.5 20.008C1209.86 19.368 1208.32 18.824 1205.89 18.376C1203.52 17.864 1200.2 17.608 1195.91 17.608C1192.77 17.608 1190.05 17.864 1187.75 18.376C1185.51 18.888 1183.81 19.464 1182.66 20.104C1181.57 20.68 1180.68 21.48 1179.97 22.504C1179.33 23.528 1178.92 24.328 1178.72 24.904C1178.6 25.416 1178.5 26.088 1178.44 26.92H1150.6V26.248C1150.6 8.904 1164.74 0.231998 1193.03 0.231998H1197.16C1204.13 0.231998 1210.21 0.647997 1215.4 1.47999C1220.64 2.248 1224.8 3.304 1227.88 4.648C1231.01 5.928 1233.51 7.56 1235.36 9.544C1237.22 11.528 1238.47 13.544 1239.11 15.592C1239.81 17.576 1240.16 19.848 1240.16 22.408V22.792C1240.16 26.888 1239.24 30.248 1237.38 32.872C1235.52 35.432 1232.23 37.64 1227.49 39.496C1222.82 41.352 1216.2 42.984 1207.62 44.392L1192.26 46.984C1179.52 49.16 1173.16 51.848 1173.16 55.048H1215.97V46.6H1241.22V73ZM1290.25 74.344H1285.64C1280.01 74.344 1274.89 73.96 1270.28 73.192C1265.68 72.488 1261.84 71.56 1258.76 70.408C1255.69 69.256 1253 67.88 1250.7 66.28C1248.4 64.68 1246.6 63.08 1245.32 61.48C1244.04 59.88 1243.02 58.152 1242.25 56.296C1241.48 54.44 1240.97 52.84 1240.72 51.496C1240.52 50.152 1240.43 48.808 1240.43 47.464V46.6H1268.56C1268.68 47.304 1268.78 47.88 1268.84 48.328C1268.97 48.712 1269.42 49.512 1270.19 50.728C1271.02 51.88 1272.04 52.808 1273.26 53.512C1274.48 54.216 1276.33 54.888 1278.83 55.528C1281.32 56.104 1284.27 56.392 1287.66 56.392C1291.12 56.392 1294.09 56.232 1296.59 55.912C1299.08 55.592 1300.97 55.208 1302.25 54.76C1303.6 54.312 1304.65 53.768 1305.42 53.128C1306.19 52.424 1306.67 51.816 1306.86 51.304C1307.05 50.792 1307.15 50.184 1307.15 49.48C1307.15 46.152 1304.2 44.488 1298.32 44.488H1274.41V27.4H1297.64C1303.02 27.4 1305.71 26.024 1305.71 23.272V23.176C1305.71 22.152 1305.39 21.288 1304.75 20.584C1304.17 19.88 1302.41 19.24 1299.47 18.664C1296.52 18.024 1292.3 17.704 1286.8 17.704C1283.47 17.704 1280.59 17.928 1278.16 18.376C1275.72 18.824 1273.93 19.336 1272.78 19.912C1271.69 20.424 1270.8 21.128 1270.09 22.024C1269.45 22.92 1269.07 23.528 1268.94 23.848C1268.88 24.168 1268.81 24.616 1268.75 25.192H1240.81V24.232C1240.81 23.016 1240.91 21.832 1241.1 20.68C1241.29 19.464 1241.74 18.024 1242.44 16.36C1243.15 14.696 1244.11 13.16 1245.32 11.752C1246.54 10.344 1248.24 8.904 1250.41 7.432C1252.65 5.96 1255.24 4.712 1258.19 3.68799C1261.2 2.664 1264.94 1.832 1269.42 1.192C1273.96 0.551998 1279.02 0.231998 1284.59 0.231998H1288.72C1296.59 0.231998 1303.4 0.647997 1309.16 1.47999C1314.92 2.248 1319.34 3.24 1322.41 4.456C1325.55 5.608 1328.01 7.08 1329.8 8.872C1331.6 10.6 1332.72 12.2 1333.16 13.672C1333.68 15.144 1333.93 16.808 1333.93 18.664V19.24C1333.93 22.504 1332.65 25.224 1330.09 27.4C1327.6 29.512 1324.68 30.856 1321.36 31.432C1325.52 32.328 1329.07 34.184 1332.01 37C1335.02 39.816 1336.52 43.784 1336.52 48.904V49.576C1336.52 66.088 1321.1 74.344 1290.25 74.344Z" fill="white"/>
</svg>
